<?xml version="1.0" standalone="no"?>
<!DOCTYPE svg PUBLIC "-//W3C//DTD SVG 20010904//EN"
 "http://www.w3.org/TR/2001/REC-SVG-20010904/DTD/svg10.dtd">
<svg version="1.0" xmlns="http://www.w3.org/2000/svg"
 width="563.000000pt" height="271.000000pt" viewBox="0 0 563.000000 271.000000"
 preserveAspectRatio="xMidYMid meet">

<g transform="translate(0.000000,271.000000) scale(0.100000,-0.100000)"
fill="#000000" stroke="none">
<path d="M2372 2475 c2 -13 12 -21 28 -23 14 -2 31 -11 38 -20 11 -14 12 -13
12 6 0 18 -6 22 -30 22 -17 0 -34 7 -40 18 -10 15 -10 15 -8 -3z"/>
<path d="M2304 2445 c-8 -21 4 -35 31 -35 13 0 29 -8 35 -17 10 -17 10 -16 8
2 -2 13 -13 22 -33 25 -20 4 -30 11 -29 23 2 21 -5 22 -12 2z"/>
<path d="M2408 2403 c7 -3 16 -2 19 1 4 3 -2 6 -13 5 -11 0 -14 -3 -6 -6z"/>
<path d="M2238 2368 c11 -18 21 -39 23 -46 3 -10 9 -9 24 3 11 8 13 13 5 10
-10 -4 -22 7 -34 30 -11 19 -23 35 -28 35 -5 0 -1 -15 10 -32z"/>
<path d="M2275 2380 c-3 -5 -1 -10 4 -10 6 0 11 5 11 10 0 6 -2 10 -4 10 -3 0
-8 -4 -11 -10z"/>
<path d="M2174 2357 c10 -7 16 -19 12 -25 -8 -13 24 -32 51 -31 12 1 10 3 -7
8 -15 4 -27 16 -30 31 -3 14 -14 26 -25 28 -20 4 -20 3 -1 -11z"/>
<path d="M2338 2363 c7 -3 16 -2 19 1 4 3 -2 6 -13 5 -11 0 -14 -3 -6 -6z"/>
<path d="M2130 2355 c0 -11 58 -94 63 -89 6 7 -45 93 -55 94 -5 0 -8 -2 -8 -5z"/>
<path d="M2095 2319 c11 -7 24 -17 28 -23 5 -7 7 -3 5 9 -2 13 -12 21 -28 23
-24 2 -24 2 -5 -9z"/>
<path d="M2082 2265 c12 -24 23 -43 25 -41 7 6 -29 86 -38 86 -5 0 1 -20 13
-45z"/>
<path d="M2022 2270 c0 -14 2 -19 5 -12 2 6 2 18 0 25 -3 6 -5 1 -5 -13z"/>
<path d="M1974 2251 c10 -15 85 -53 98 -49 5 2 -12 15 -39 28 -64 33 -67 34
-59 21z"/>
<path d="M1900 2188 c11 -13 23 -33 26 -45 4 -13 10 -21 14 -18 12 8 -31 85
-47 85 -9 0 -7 -7 7 -22z"/>
<path d="M2012 2185 c0 -16 2 -22 5 -12 2 9 2 23 0 30 -3 6 -5 -1 -5 -18z"/>
<path d="M1976 2153 c-6 -14 -5 -15 5 -6 7 7 10 15 7 18 -3 3 -9 -2 -12 -12z"/>
<path d="M1395 2041 c-127 -33 -234 -139 -260 -258 l-7 -33 45 0 c43 0 45 1
61 43 56 146 222 210 358 138 52 -28 57 -29 84 -15 16 9 33 19 37 23 11 11
-58 64 -113 85 -50 20 -160 29 -205 17z"/>
<path d="M1706 1905 c-10 -8 -24 -16 -30 -18 -7 -2 -1 -25 17 -60 15 -31 27
-61 27 -66 0 -6 20 -11 45 -11 25 0 45 4 45 8 0 16 -38 118 -51 140 -16 25
-27 27 -53 7z"/>
<path d="M90 1683 c0 -5 -1 -134 -2 -288 -1 -154 -1 -367 0 -474 l2 -193 283
5 c163 3 302 10 330 17 117 29 197 126 197 240 0 100 -34 166 -114 216 l-45
28 38 33 c54 46 74 92 73 172 -1 77 -10 105 -47 150 -68 80 -163 101 -477 101
-131 0 -238 -3 -238 -7z m537 -143 c124 -56 100 -218 -37 -249 -25 -6 -114
-11 -197 -11 -152 0 -153 0 -154 23 -1 24 0 250 0 255 1 1 79 2 174 2 148 0
178 -3 214 -20z m50 -409 c99 -57 96 -185 -7 -245 -32 -19 -51 -21 -235 -21
l-200 0 -2 140 c-1 77 1 143 4 148 3 5 93 7 202 5 186 -3 198 -4 238 -27z"/>
<path d="M1060 1400 c0 -317 9 -400 56 -492 68 -134 202 -197 389 -185 113 7
177 31 242 90 111 102 129 186 129 586 l-1 286 -75 0 -75 0 0 -305 c-1 -339
-6 -377 -68 -447 -49 -56 -99 -75 -189 -75 -68 0 -85 4 -131 30 -64 36 -104
96 -117 177 -5 33 -10 187 -10 343 l0 282 -75 0 -75 0 0 -290z"/>
<path d="M1997 1682 c-3 -4 17 -44 45 -87 28 -44 92 -147 143 -230 50 -82 113
-182 138 -222 l47 -72 0 -170 0 -171 75 0 75 0 0 169 0 169 102 163 c181 292
278 451 278 456 0 2 -35 3 -77 1 l-78 -3 -102 -165 c-57 -91 -122 -198 -145
-237 -23 -40 -44 -73 -47 -73 -4 0 -51 76 -106 168 -55 92 -121 199 -146 238
l-47 71 -75 2 c-41 1 -78 -2 -80 -7z"/>
<path d="M2976 1668 c-3 -13 -6 -42 -6 -65 l0 -43 265 0 c178 0 265 -3 265
-10 0 -6 -29 -48 -65 -93 -53 -67 -189 -240 -340 -432 -144 -185 -146 -187
-143 -240 l3 -50 388 -3 387 -2 0 67 0 68 -285 -3 c-157 -1 -285 1 -285 5 1 9
36 57 92 124 20 24 73 91 117 149 45 58 87 112 94 120 7 8 34 44 61 80 27 36
80 104 118 151 66 84 68 89 68 143 l0 56 -364 0 -364 0 -6 -22z"/>
<path d="M3880 1210 l0 -480 343 2 342 3 3 63 3 62 -271 0 -270 0 0 150 0 150
230 0 230 0 0 60 0 60 -230 0 -230 0 0 140 0 140 260 0 260 0 0 65 0 65 -335
0 -335 0 0 -480z"/>
<path d="M4730 1685 c0 -3 0 -218 0 -477 l0 -473 70 -3 70 -3 0 346 c0 202 4
345 9 345 5 0 11 -4 13 -8 2 -5 17 -27 35 -48 45 -55 112 -139 322 -403 l184
-232 61 3 61 3 0 475 0 475 -72 3 -73 3 0 -341 c0 -187 -3 -340 -7 -340 -5 0
-19 15 -33 32 -224 285 -461 581 -494 616 -27 29 -35 32 -88 32 -32 0 -58 -2
-58 -5z"/>
<path d="M80 355 l0 -85 68 2 67 2 -57 3 -58 4 0 34 c0 35 0 35 48 37 l47 1
-45 6 c-42 6 -45 8 -48 38 l-3 32 58 4 58 3 -67 2 -68 2 0 -85z"/>
<path d="M260 355 l0 -85 63 2 62 2 -52 3 -53 4 0 80 c0 46 -4 79 -10 79 -6 0
-10 -35 -10 -85z"/>
<path d="M420 355 l0 -85 63 2 62 1 -55 6 c-53 6 -55 7 -55 36 0 29 2 30 50
34 l50 5 -50 5 c-48 6 -50 7 -50 36 0 29 2 30 55 36 l55 6 -62 1 -63 2 0 -85z"/>
<path d="M576 418 c20 -64 65 -148 79 -148 8 0 15 2 15 4 0 2 16 41 35 85 19
45 30 81 24 81 -6 0 -24 -31 -41 -70 -17 -38 -34 -70 -37 -70 -3 0 -19 32 -35
70 -15 39 -33 70 -38 70 -5 0 -6 -10 -2 -22z"/>
<path d="M792 378 c-37 -80 -46 -108 -33 -108 5 0 13 9 16 20 5 17 15 20 59
20 47 0 54 -3 65 -26 6 -15 14 -24 18 -21 3 4 -4 27 -16 52 -12 25 -29 64 -37
85 -9 22 -22 40 -29 40 -8 0 -27 -28 -43 -62z m75 -44 c-3 -3 -20 -4 -39 -2
l-34 3 19 45 20 44 20 -42 c11 -24 17 -45 14 -48z"/>
<path d="M955 431 c30 -6 30 -6 33 -84 4 -101 22 -100 22 2 l0 80 33 4 c17 2
-2 4 -43 4 -45 0 -63 -2 -45 -6z"/>
<path d="M1110 355 l0 -85 68 2 67 2 -57 3 -58 4 0 34 c0 33 1 34 48 38 l47 3
-47 2 c-48 2 -48 2 -48 36 0 35 0 35 53 39 l52 3 -62 2 -63 2 0 -85z"/>
<path d="M1285 423 c2 -10 4 -48 4 -85 l1 -68 58 0 c72 0 102 25 102 84 0 59
-34 86 -109 86 -51 0 -59 -2 -56 -17z m126 -19 c12 -11 19 -30 19 -55 0 -33
-5 -41 -31 -54 -16 -9 -45 -15 -62 -13 -32 3 -32 4 -35 62 -4 82 0 90 49 83
22 -3 49 -13 60 -23z"/>
<path d="M1596 418 c-36 -32 -42 -75 -17 -115 21 -33 36 -38 96 -34 32 3 53
16 42 28 -4 4 -13 1 -19 -5 -30 -30 -101 -3 -112 42 -15 58 46 112 100 87 33
-15 39 -14 24 4 -19 23 -84 19 -114 -7z"/>
<path d="M1775 415 c-48 -48 -22 -135 44 -148 96 -19 154 80 89 151 -31 32
-98 31 -133 -3z m105 0 c67 -35 38 -135 -40 -135 -29 0 -70 44 -70 75 0 29 40
75 65 75 9 0 29 -7 45 -15z"/>
<path d="M1992 348 c2 -83 2 -85 5 -25 2 37 8 67 12 67 5 0 16 -15 25 -32 9
-18 23 -42 31 -53 18 -22 16 -23 57 48 12 20 24 37 27 37 3 0 5 -25 4 -55 -1
-30 2 -57 7 -60 6 -4 10 27 10 79 0 47 -4 86 -8 86 -4 0 -24 -27 -43 -60 -18
-33 -37 -60 -40 -60 -3 0 -21 27 -40 60 -19 33 -37 60 -41 60 -5 0 -7 -42 -6
-92z"/>
<path d="M2240 355 c0 -55 4 -85 11 -85 7 0 9 20 6 60 -2 33 -2 60 2 60 3 0
19 -23 34 -50 16 -28 31 -50 35 -50 5 0 21 23 37 50 16 28 33 50 37 50 4 0 9
-28 11 -62 3 -54 3 -51 5 25 1 48 -1 87 -5 87 -5 0 -24 -27 -42 -60 -19 -33
-38 -60 -41 -60 -3 0 -22 27 -41 60 -18 33 -37 60 -41 60 -5 0 -8 -38 -8 -85z"/>
<path d="M2490 355 l0 -85 68 2 67 2 -56 3 c-53 4 -57 6 -62 31 -7 38 -2 42
51 44 l47 1 -50 6 c-48 6 -50 7 -50 36 0 29 2 30 55 36 l55 6 -62 1 -63 2 0
-85z"/>
<path d="M2660 355 c0 -69 3 -85 15 -85 9 0 15 9 15 25 0 21 5 25 29 25 20 0
34 -8 45 -25 9 -14 21 -25 27 -25 7 0 4 11 -6 26 -15 23 -15 27 -1 43 23 25
21 78 -3 91 -11 5 -42 10 -70 10 l-51 0 0 -85z m110 55 c11 -11 20 -24 20 -29
0 -21 -34 -41 -68 -41 -36 0 -37 1 -36 37 1 21 2 41 3 46 2 15 62 6 81 -13z"/>
<path d="M2866 409 c-14 -17 -26 -40 -26 -52 0 -35 35 -84 64 -89 37 -7 89 5
94 21 4 11 0 12 -14 6 -68 -28 -118 -3 -118 59 0 20 7 43 17 53 18 18 70 22
102 8 18 -8 19 -7 6 8 -9 11 -28 17 -56 17 -36 0 -48 -5 -69 -31z"/>
<path d="M3050 355 l0 -85 68 2 67 1 -60 6 c-59 6 -60 7 -60 36 0 29 2 30 50
34 l50 5 -50 5 c-51 6 -51 5 -46 55 1 11 17 16 54 19 l52 3 -62 2 -63 2 0 -85z"/>
<path d="M3403 433 c31 -2 57 -7 57 -10 0 -3 -25 -36 -55 -74 -30 -37 -55 -70
-55 -73 0 -4 35 -5 78 -4 76 2 76 2 15 5 -35 2 -63 7 -63 11 0 4 15 23 33 42
44 47 77 91 77 101 0 5 -33 8 -72 7 -70 -2 -71 -2 -15 -5z"/>
<path d="M3540 355 l0 -85 68 2 67 2 -57 3 -58 4 0 34 c0 33 1 34 48 38 l47 3
-47 2 c-48 2 -48 2 -48 37 l0 34 58 4 57 3 -67 2 -68 2 0 -85z"/>
<path d="M3720 348 c0 -68 3 -89 11 -81 7 7 10 35 7 72 -2 34 -1 61 2 61 3 0
28 -29 55 -65 27 -36 55 -65 62 -65 10 0 13 23 13 85 0 50 -4 85 -10 85 -6 0
-10 -28 -10 -65 0 -36 -3 -65 -7 -65 -5 0 -30 30 -57 65 -27 36 -53 65 -57 65
-5 0 -9 -41 -9 -92z"/>
<path d="M4012 428 c-28 -28 -7 -78 34 -78 32 0 67 -31 59 -53 -8 -19 -55 -23
-85 -7 -11 6 -21 6 -24 1 -6 -10 39 -27 64 -25 8 1 23 2 32 3 24 1 41 37 29
59 -5 9 -29 24 -53 32 -76 27 -56 82 23 65 22 -5 29 -4 25 4 -10 15 -89 14
-104 -1z"/>
<path d="M4179 433 c-3 -31 1 -166 5 -171 3 -3 6 36 6 86 0 51 -2 92 -5 92 -3
0 -5 -3 -6 -7z"/>
<path d="M4260 355 c0 -98 18 -116 22 -22 l3 62 29 -53 c16 -29 34 -51 40 -49
6 2 22 24 36 50 14 26 28 47 33 47 4 0 7 -30 7 -66 0 -42 4 -63 10 -59 15 9
11 175 -4 175 -6 0 -26 -27 -44 -60 -18 -33 -36 -60 -41 -60 -4 0 -13 12 -20
28 -17 37 -54 92 -63 92 -5 0 -8 -38 -8 -85z"/>
<path d="M4510 355 c0 -50 4 -85 10 -85 6 0 10 11 10 24 0 21 6 24 47 29 50 5
73 25 73 62 0 36 -31 55 -88 55 l-52 0 0 -85z m95 63 c27 -12 34 -45 13 -66
-7 -7 -29 -12 -50 -12 l-38 0 0 45 c0 41 2 45 25 45 13 0 36 -5 50 -12z"/>
<path d="M4700 355 l0 -85 63 2 62 2 -52 3 -53 4 0 80 c0 46 -4 79 -10 79 -6
0 -10 -35 -10 -85z"/>
<path d="M4860 349 c0 -57 4 -88 10 -84 6 3 10 44 10 91 0 49 -4 84 -10 84 -6
0 -10 -37 -10 -91z"/>
<path d="M4955 415 c-57 -56 -17 -150 65 -150 39 0 70 18 57 32 -4 4 -13 1
-19 -5 -36 -36 -108 5 -108 63 0 55 54 90 100 65 25 -13 42 -4 20 10 -30 19
-90 11 -115 -15z"/>
<path d="M5130 356 c0 -47 5 -88 10 -91 6 -4 10 27 10 84 0 54 -4 91 -10 91
-6 0 -10 -35 -10 -84z"/>
<path d="M5218 433 l32 -4 0 -80 c0 -102 18 -103 22 -1 l3 77 35 6 c22 4 6 6
-45 6 -44 0 -65 -2 -47 -4z"/>
<path d="M5364 413 c8 -16 24 -41 35 -58 12 -16 21 -42 21 -57 0 -16 5 -28 11
-28 6 0 8 7 5 16 -7 18 15 75 44 111 11 14 20 30 20 34 0 16 -19 9 -24 -8 -3
-10 -17 -31 -29 -47 l-24 -30 -27 47 c-29 50 -57 67 -32 20z"/>
<path d="M3215 280 c-3 -5 1 -10 9 -10 9 0 16 5 16 10 0 6 -4 10 -9 10 -6 0
-13 -4 -16 -10z"/>
<path d="M5520 280 c0 -5 7 -10 15 -10 8 0 15 5 15 10 0 6 -7 10 -15 10 -8 0
-15 -4 -15 -10z"/>
</g>
</svg>
